<svg width="31" height="30" viewBox="0 0 31 30" fill="none" xmlns="http://www.w3.org/2000/svg">
<g id="basil:settings-adjust-solid">
<path id="Vector" d="M17.8475 10.9374H5.5C5.25136 10.9374 5.0129 10.8386 4.83709 10.6628C4.66127 10.487 4.5625 10.2485 4.5625 9.9999C4.5625 9.75126 4.66127 9.51281 4.83709 9.33699C5.0129 9.16118 5.25136 9.0624 5.5 9.0624H17.8475C18.0416 8.51404 18.4009 8.03931 18.8759 7.70355C19.3509 7.36779 19.9183 7.1875 20.5 7.1875C21.0817 7.1875 21.6491 7.36779 22.1241 7.70355C22.5991 8.03931 22.9584 8.51404 23.1525 9.0624H25.5C25.7486 9.0624 25.9871 9.16118 26.1629 9.33699C26.3387 9.51281 26.4375 9.75126 26.4375 9.9999C26.4375 10.2485 26.3387 10.487 26.1629 10.6628C25.9871 10.8386 25.7486 10.9374 25.5 10.9374H23.1525C22.9584 11.4858 22.5991 11.9605 22.1241 12.2963C21.6491 12.632 21.0817 12.8123 20.5 12.8123C19.9183 12.8123 19.3509 12.632 18.8759 12.2963C18.4009 11.9605 18.0416 11.4858 17.8475 10.9374ZM25.5 20.9374C25.7486 20.9374 25.9871 20.8386 26.1629 20.6628C26.3387 20.487 26.4375 20.2485 26.4375 19.9999C26.4375 19.7513 26.3387 19.5128 26.1629 19.337C25.9871 19.1612 25.7486 19.0624 25.5 19.0624H13.1525C12.9584 18.514 12.5991 18.0393 12.1241 17.7035C11.6491 17.3678 11.0817 17.1875 10.5 17.1875C9.9183 17.1875 9.3509 17.3678 8.87588 17.7035C8.40087 18.0393 8.04159 18.514 7.8475 19.0624H5.5C5.25136 19.0624 5.0129 19.1612 4.83709 19.337C4.66127 19.5128 4.5625 19.7513 4.5625 19.9999C4.5625 20.2485 4.66127 20.487 4.83709 20.6628C5.0129 20.8386 5.25136 20.9374 5.5 20.9374H7.8475C8.04102 21.4863 8.40008 21.9617 8.87516 22.298C9.35025 22.6342 9.91795 22.8148 10.5 22.8148C11.082 22.8148 11.6498 22.6342 12.1248 22.298C12.5999 21.9617 12.959 21.4863 13.1525 20.9374H25.5Z" fill="#3943A8"/>
</g>
</svg>
