<svg width="31" height="30" viewBox="0 0 31 30" fill="none" xmlns="http://www.w3.org/2000/svg">
<g id="ph:gender-male">
<path id="Vector" d="M25.8127 3.75H20.1877C19.9391 3.75 19.7006 3.84877 19.5248 4.02459C19.349 4.2004 19.2502 4.43886 19.2502 4.6875C19.2502 4.93614 19.349 5.1746 19.5248 5.35041C19.7006 5.52623 19.9391 5.625 20.1877 5.625H23.5498L18.6198 10.5551C16.7575 9.0329 14.3815 8.28466 11.9831 8.46512C9.58472 8.64558 7.34742 9.74093 5.73394 11.5246C4.12047 13.3083 3.25426 15.6439 3.31446 18.0484C3.37467 20.4528 4.35668 22.7421 6.0574 24.4428C7.75812 26.1435 10.0474 27.1256 12.4519 27.1858C14.8563 27.246 17.1919 26.3797 18.9756 24.7663C20.7593 23.1528 21.8546 20.9155 22.0351 18.5171C22.2156 16.1187 21.4673 13.7427 19.9451 11.8805L24.8752 6.95156V10.3125C24.8752 10.5611 24.974 10.7996 25.1498 10.9754C25.3256 11.1512 25.5641 11.25 25.8127 11.25C26.0614 11.25 26.2998 11.1512 26.4756 10.9754C26.6514 10.7996 26.7502 10.5611 26.7502 10.3125V4.6875C26.7502 4.43886 26.6514 4.2004 26.4756 4.02459C26.2998 3.84877 26.0614 3.75 25.8127 3.75ZM17.9893 23.1199C16.9403 24.1685 15.6039 24.8825 14.1491 25.1716C12.6943 25.4607 11.1865 25.312 9.81627 24.7442C8.44602 24.1764 7.27488 23.2152 6.45092 21.9819C5.62695 20.7486 5.18717 19.2986 5.18717 17.8154C5.18717 16.3322 5.62695 14.8823 6.45092 13.649C7.27488 12.4157 8.44602 11.4544 9.81627 10.8867C11.1865 10.3189 12.6943 10.1702 14.1491 10.4593C15.6039 10.7484 16.9403 11.4624 17.9893 12.5109C19.3937 13.9191 20.1823 15.8267 20.1823 17.8154C20.1823 19.8042 19.3937 21.7118 17.9893 23.1199Z" fill="#3943A8"/>
</g>
</svg>
