<svg width="51" height="50" viewBox="0 0 51 50" fill="none" xmlns="http://www.w3.org/2000/svg">
<g id="carbon:message-queue">
<path id="Vector" d="M44.25 43.75H6.75C5.92145 43.7492 5.12708 43.4197 4.5412 42.8338C3.95533 42.2479 3.62583 41.4535 3.625 40.625V32.8125H6.75V40.625H44.25V32.8125H47.375V40.625C47.3742 41.4535 47.0447 42.2479 46.4588 42.8338C45.8729 43.4197 45.0785 43.7492 44.25 43.75Z" fill="#3943A8"/>
<path id="Vector_2" d="M11.4375 32.8125H39.5625V35.9375H11.4375V32.8125ZM11.4375 25H39.5625V28.125H11.4375V25ZM11.4375 17.1875H39.5625V20.3125H11.4375V17.1875ZM11.4375 9.375H39.5625V12.5H11.4375V9.375Z" fill="#3943A8"/>
</g>
</svg>
