<svg width="51" height="50" viewBox="0 0 51 50" fill="none" xmlns="http://www.w3.org/2000/svg">
<g id="tabler:target-arrow">
<g id="Group">
<path id="Vector" d="M23.4167 24.9998C23.4167 25.5524 23.6362 26.0823 24.0269 26.473C24.4176 26.8637 24.9475 27.0832 25.5001 27.0832C26.0526 27.0832 26.5825 26.8637 26.9732 26.473C27.3639 26.0823 27.5834 25.5524 27.5834 24.9998C27.5834 24.4473 27.3639 23.9174 26.9732 23.5267C26.5825 23.136 26.0526 22.9165 25.5001 22.9165C24.9475 22.9165 24.4176 23.136 24.0269 23.5267C23.6362 23.9174 23.4167 24.4473 23.4167 24.9998Z" stroke="#3943A8" stroke-width="2" stroke-linecap="round" stroke-linejoin="round"/>
<path id="Vector_2" d="M25.4999 14.5833C23.4397 14.5833 21.4257 15.1942 19.7127 16.3388C17.9997 17.4834 16.6646 19.1102 15.8762 21.0136C15.0878 22.917 14.8815 25.0115 15.2834 27.0321C15.6853 29.0527 16.6774 30.9088 18.1342 32.3656C19.591 33.8224 21.4471 34.8145 23.4677 35.2164C25.4884 35.6184 27.5828 35.4121 29.4862 34.6237C31.3896 33.8353 33.0165 32.5001 34.1611 30.7871C35.3057 29.0741 35.9166 27.0601 35.9166 24.9999" stroke="#3943A8" stroke-width="2" stroke-linecap="round" stroke-linejoin="round"/>
<path id="Vector_3" d="M27.5833 6.36447C23.721 5.93116 19.8194 6.7088 16.4183 8.58983C13.0173 10.4709 10.2848 13.3623 8.59885 16.8642C6.91292 20.3661 6.35687 24.3053 7.00764 28.137C7.6584 31.9688 9.4838 35.5036 12.2313 38.2525C14.9789 41.0014 18.5128 42.8286 22.3442 43.4813C26.1756 44.134 30.1151 43.5799 33.6178 41.8958C37.1206 40.2116 40.0134 37.4806 41.8961 34.0804C43.7788 30.6803 44.5585 26.7791 44.1271 22.9166" stroke="#3943A8" stroke-width="2" stroke-linecap="round" stroke-linejoin="round"/>
<path id="Vector_4" d="M31.75 18.75V12.5L38 6.25V12.5H44.25L38 18.75H31.75ZM31.75 18.75L25.5 25" stroke="#3943A8" stroke-width="2" stroke-linecap="round" stroke-linejoin="round"/>
</g>
</g>
</svg>
