<svg width="31" height="30" viewBox="0 0 31 30" fill="none" xmlns="http://www.w3.org/2000/svg">
<path id="Vector" d="M28.625 0H24.875C24.3777 0 23.9008 0.175673 23.5492 0.488372C23.1975 0.801072 23 1.22518 23 1.66741V30H30.5V1.66741C30.5 1.22518 30.3025 0.801072 29.9508 0.488372C29.5992 0.175673 29.1223 0 28.625 0ZM17.375 10.0044H13.625C13.1277 10.0044 12.6508 10.1801 12.2992 10.4928C11.9475 10.8055 11.75 11.2296 11.75 11.6719V30H19.25V11.6719C19.25 11.2296 19.0525 10.8055 18.7008 10.4928C18.3492 10.1801 17.8723 10.0044 17.375 10.0044ZM6.125 20.0089H2.375C1.87772 20.0089 1.40081 20.1846 1.04917 20.4973C0.697544 20.81 0.5 21.2341 0.5 21.6763V30H8V21.6763C8 21.2341 7.80246 20.81 7.45082 20.4973C7.09919 20.1846 6.62228 20.0089 6.125 20.0089Z" fill="#3943A8"/>
</svg>
