<svg width="51" height="50" viewBox="0 0 51 50" fill="none" xmlns="http://www.w3.org/2000/svg">
<g id="clarity:clock-line" clip-path="url(#clip0_104_1909)">
<path id="Vector" d="M25.5001 2.77783C21.1049 2.77783 16.8085 4.08114 13.1541 6.52295C9.49963 8.96476 6.65136 12.4354 4.96941 16.496C3.28746 20.5566 2.84739 25.0247 3.70484 29.3354C4.56229 33.6461 6.67875 37.6057 9.78658 40.7135C12.8944 43.8214 16.854 45.9378 21.1647 46.7953C25.4754 47.6527 29.9436 47.2127 34.0041 45.5307C38.0647 43.8488 41.5354 41.0005 43.9772 37.3461C46.419 33.6916 47.7223 29.3952 47.7223 25.0001C47.7223 19.1064 45.381 13.454 41.2135 9.28657C37.0461 5.1191 31.3938 2.77783 25.5001 2.77783ZM25.5001 44.4445C21.6543 44.4445 17.8949 43.3041 14.6973 41.1675C11.4997 39.0309 9.00744 35.9941 7.53574 32.4411C6.06404 28.8881 5.67897 24.9785 6.42924 21.2066C7.17951 17.4348 9.03141 13.9701 11.7508 11.2508C14.4701 8.5314 17.9348 6.6795 21.7066 5.92923C25.4785 5.17896 29.3881 5.56403 32.9411 7.03573C36.4941 8.50743 39.5309 10.9997 41.6675 14.1973C43.8041 17.3949 44.9445 21.1543 44.9445 25.0001C44.9445 30.157 42.8959 35.1028 39.2494 38.7494C35.6028 42.3959 30.6571 44.4445 25.5001 44.4445Z" fill="#3943A8"/>
<path id="Vector_2" d="M26.7778 25.5556V14.9306C26.7778 14.5623 26.6314 14.209 26.371 13.9485C26.1105 13.6881 25.7572 13.5417 25.3889 13.5417C25.0205 13.5417 24.6673 13.6881 24.4068 13.9485C24.1463 14.209 24 14.5623 24 14.9306V27.0417L32.1944 32.5973C32.3454 32.7108 32.5179 32.7924 32.7014 32.837C32.885 32.8816 33.0757 32.8882 33.2619 32.8566C33.4481 32.825 33.6259 32.7557 33.7844 32.653C33.943 32.5503 34.0789 32.4164 34.1839 32.2594C34.2888 32.1023 34.3607 31.9256 34.395 31.7398C34.4294 31.5541 34.4255 31.3633 34.3836 31.1792C34.3417 30.995 34.2626 30.8213 34.1513 30.6687C34.04 30.5161 33.8987 30.3879 33.7361 30.2917L26.7778 25.5556Z" fill="#3943A8"/>
<path id="Vector_3" d="M11.6112 24.9166C11.5985 22.4181 12.2641 19.9629 13.5371 17.8129C14.81 15.6629 16.6426 13.8987 18.8395 12.7083C21.0363 11.518 23.5149 10.9461 26.0112 11.0537C28.5075 11.1613 30.9278 11.9444 33.014 13.3194L34.1945 11.4305C32.2129 10.1325 29.9684 9.28941 27.6222 8.96191C25.2761 8.6344 22.8865 8.83058 20.6251 9.53636C18.3638 10.2421 16.2868 11.44 14.5435 13.0439C12.8001 14.6477 11.4336 16.6178 10.5421 18.8126C9.65059 21.0073 9.25625 23.3723 9.3874 25.7376C9.51854 28.1029 10.1719 30.4098 11.3006 32.4925C12.4292 34.5753 14.0052 36.3822 15.9152 37.7835C17.8252 39.1848 20.0218 40.1457 22.3473 40.5972L22.7223 38.4722C19.5945 37.8338 16.7821 36.1373 14.7584 33.6685C12.7348 31.1996 11.6233 28.1089 11.6112 24.9166Z" fill="#3943A8"/>
</g>
<defs>
<clipPath id="clip0_104_1909">
<rect width="50" height="50" fill="white" transform="translate(0.5)"/>
</clipPath>
</defs>
</svg>
