<svg width="24" height="25" viewBox="0 0 24 25" fill="none" xmlns="http://www.w3.org/2000/svg">
<g id="FunnelSimple">
<path id="Vector (Stroke)" fill-rule="evenodd" clip-rule="evenodd" d="M5.25 12.8374C5.25 12.4232 5.58579 12.0874 6 12.0874H18C18.4142 12.0874 18.75 12.4232 18.75 12.8374C18.75 13.2516 18.4142 13.5874 18 13.5874H6C5.58579 13.5874 5.25 13.2516 5.25 12.8374Z" fill="#141414"/>
<path id="Vector (Stroke)_2" fill-rule="evenodd" clip-rule="evenodd" d="M1.5 8.3374C1.5 7.92319 1.83579 7.5874 2.25 7.5874H21.75C22.1642 7.5874 22.5 7.92319 22.5 8.3374C22.5 8.75162 22.1642 9.0874 21.75 9.0874H2.25C1.83579 9.0874 1.5 8.75162 1.5 8.3374Z" fill="#141414"/>
<path id="Vector (Stroke)_3" fill-rule="evenodd" clip-rule="evenodd" d="M9 17.3374C9 16.9232 9.33579 16.5874 9.75 16.5874H14.25C14.6642 16.5874 15 16.9232 15 17.3374C15 17.7516 14.6642 18.0874 14.25 18.0874H9.75C9.33579 18.0874 9 17.7516 9 17.3374Z" fill="#141414"/>
</g>
</svg>
