<svg width="30" height="31" viewBox="0 0 30 31" fill="none" xmlns="http://www.w3.org/2000/svg">
<g id="bx:search">
<path id="Vector" d="M12.5 23.3374C14.7187 23.3369 16.8735 22.5942 18.6213 21.2274L24.1162 26.7224L25.8838 24.9549L20.3888 19.4599C21.7563 17.712 22.4995 15.5567 22.5 13.3374C22.5 7.82365 18.0138 3.3374 12.5 3.3374C6.98625 3.3374 2.5 7.82365 2.5 13.3374C2.5 18.8512 6.98625 23.3374 12.5 23.3374ZM12.5 5.8374C16.6362 5.8374 20 9.20115 20 13.3374C20 17.4737 16.6362 20.8374 12.5 20.8374C8.36375 20.8374 5 17.4737 5 13.3374C5 9.20115 8.36375 5.8374 12.5 5.8374Z" fill="#3943A8"/>
</g>
</svg>
