<svg width="20" height="20" viewBox="0 0 20 20" fill="none" xmlns="http://www.w3.org/2000/svg">
<g id="Frame">
<path id="Vector" d="M9.10337 3.48326C9.47021 2.74009 10.53 2.74009 10.8968 3.48326L12.3426 6.41238C12.4882 6.70723 12.7694 6.91169 13.0947 6.95924L16.3296 7.43208C17.1495 7.55192 17.4763 8.55976 16.8827 9.13792L14.5435 11.4163C14.3077 11.646 14.2 11.9772 14.2557 12.3017L14.8075 15.5193C14.9476 16.3362 14.0901 16.9592 13.3564 16.5734L10.4655 15.0531C10.1741 14.8998 9.82601 14.8998 9.53463 15.0531L6.64371 16.5734C5.91008 16.9592 5.05254 16.3362 5.19265 15.5193L5.7445 12.3017C5.80016 11.9772 5.6925 11.646 5.45663 11.4163L3.11743 9.13792C2.52383 8.55976 2.85062 7.55192 3.67053 7.43208L6.90545 6.95924C7.2308 6.91169 7.51199 6.70723 7.65753 6.41238L9.10337 3.48326Z" stroke="#FFB800" stroke-linecap="round" stroke-linejoin="round"/>
</g>
</svg>
