<svg width="21" height="21" viewBox="0 0 21 21" fill="none" xmlns="http://www.w3.org/2000/svg">
<g id="Facebook" clip-path="url(#clip0_320_307)">
<path id="Vector" d="M20.5 10.1604C20.5 4.63755 16.0229 0.1604 10.5 0.1604C4.97715 0.1604 0.5 4.63755 0.5 10.1604C0.5 15.1516 4.15684 19.2887 8.9375 20.0389V13.051H6.39844V10.1604H8.9375V7.95728C8.9375 5.45103 10.4305 4.06665 12.7146 4.06665C13.8084 4.06665 14.9531 4.26196 14.9531 4.26196V6.7229H13.6922C12.45 6.7229 12.0625 7.4938 12.0625 8.2854V10.1604H14.8359L14.3926 13.051H12.0625V20.0389C16.8432 19.2887 20.5 15.1516 20.5 10.1604Z" fill="#3943A8"/>
</g>
<defs>
<clipPath id="clip0_320_307">
<rect width="20" height="20" fill="white" transform="translate(0.5 0.1604)"/>
</clipPath>
</defs>
</svg>
