<svg width="21" height="21" viewBox="0 0 21 21" fill="none" xmlns="http://www.w3.org/2000/svg">
<g id="Instagram" clip-path="url(#clip0_233_154)">
<g id="Group">
<path id="Vector" d="M10.5 1.96118C13.1719 1.96118 13.4883 1.9729 14.5391 2.01978C15.5156 2.06274 16.043 2.22681 16.3945 2.36353C16.8594 2.54321 17.1953 2.76196 17.543 3.10962C17.8945 3.46118 18.1094 3.79321 18.2891 4.25806C18.4258 4.60962 18.5898 5.14087 18.6328 6.11353C18.6797 7.16821 18.6914 7.48462 18.6914 10.1526C18.6914 12.8245 18.6797 13.1409 18.6328 14.1917C18.5898 15.1682 18.4258 15.6956 18.2891 16.0471C18.1094 16.512 17.8906 16.8479 17.543 17.1956C17.1914 17.5471 16.8594 17.762 16.3945 17.9417C16.043 18.0784 15.5117 18.2424 14.5391 18.2854C13.4844 18.3323 13.168 18.344 10.5 18.344C7.82813 18.344 7.51172 18.3323 6.46094 18.2854C5.48438 18.2424 4.95703 18.0784 4.60547 17.9417C4.14063 17.762 3.80469 17.5432 3.45703 17.1956C3.10547 16.844 2.89063 16.512 2.71094 16.0471C2.57422 15.6956 2.41016 15.1643 2.36719 14.1917C2.32031 13.137 2.30859 12.8206 2.30859 10.1526C2.30859 7.48071 2.32031 7.16431 2.36719 6.11353C2.41016 5.13696 2.57422 4.60962 2.71094 4.25806C2.89063 3.79321 3.10938 3.45728 3.45703 3.10962C3.80859 2.75806 4.14063 2.54321 4.60547 2.36353C4.95703 2.22681 5.48828 2.06274 6.46094 2.01978C7.51172 1.9729 7.82813 1.96118 10.5 1.96118ZM10.5 0.1604C7.78516 0.1604 7.44531 0.172119 6.37891 0.218994C5.31641 0.265869 4.58594 0.437744 3.95313 0.683838C3.29297 0.94165 2.73438 1.28149 2.17969 1.84009C1.62109 2.39478 1.28125 2.95337 1.02344 3.60962C0.777344 4.24634 0.605469 4.9729 0.558594 6.0354C0.511719 7.10571 0.5 7.44556 0.5 10.1604C0.5 12.8752 0.511719 13.2151 0.558594 14.2815C0.605469 15.344 0.777344 16.0745 1.02344 16.7073C1.28125 17.3674 1.62109 17.926 2.17969 18.4807C2.73438 19.0354 3.29297 19.3792 3.94922 19.6331C4.58594 19.8792 5.3125 20.051 6.375 20.0979C7.44141 20.1448 7.78125 20.1565 10.4961 20.1565C13.2109 20.1565 13.5508 20.1448 14.6172 20.0979C15.6797 20.051 16.4102 19.8792 17.043 19.6331C17.6992 19.3792 18.2578 19.0354 18.8125 18.4807C19.3672 17.926 19.7109 17.3674 19.9648 16.7112C20.2109 16.0745 20.3828 15.3479 20.4297 14.2854C20.4766 13.219 20.4883 12.8792 20.4883 10.1643C20.4883 7.44946 20.4766 7.10962 20.4297 6.04321C20.3828 4.98071 20.2109 4.25024 19.9648 3.61743C19.7188 2.95337 19.3789 2.39478 18.8203 1.84009C18.2656 1.2854 17.707 0.94165 17.0508 0.687744C16.4141 0.44165 15.6875 0.269775 14.625 0.2229C13.5547 0.172119 13.2148 0.1604 10.5 0.1604Z" fill="#29849F"/>
<path id="Vector_2" d="M10.5 5.02368C7.66406 5.02368 5.36328 7.32446 5.36328 10.1604C5.36328 12.9963 7.66406 15.2971 10.5 15.2971C13.3359 15.2971 15.6367 12.9963 15.6367 10.1604C15.6367 7.32446 13.3359 5.02368 10.5 5.02368ZM10.5 13.4924C8.66016 13.4924 7.16797 12.0002 7.16797 10.1604C7.16797 8.32056 8.66016 6.82837 10.5 6.82837C12.3398 6.82837 13.832 8.32056 13.832 10.1604C13.832 12.0002 12.3398 13.4924 10.5 13.4924Z" fill="#29849F"/>
<path id="Vector_3" d="M17.0391 4.8205C17.0391 5.48456 16.5 6.01972 15.8398 6.01972C15.1758 6.01972 14.6406 5.48065 14.6406 4.8205C14.6406 4.15643 15.1797 3.62128 15.8398 3.62128C16.5 3.62128 17.0391 4.16034 17.0391 4.8205Z" fill="#29849F"/>
</g>
</g>
<defs>
<clipPath id="clip0_233_154">
<rect width="20" height="20" fill="white" transform="translate(0.5 0.1604)"/>
</clipPath>
</defs>
</svg>
