<svg width="21" height="21" viewBox="0 0 21 21" fill="none" xmlns="http://www.w3.org/2000/svg">
<g id="LinkedIn" clip-path="url(#clip0_320_316)">
<g id="Group">
<path id="Vector" d="M19.0195 0.1604H1.97656C1.16016 0.1604 0.5 0.804932 0.5 1.60181V18.7151C0.5 19.512 1.16016 20.1604 1.97656 20.1604H19.0195C19.8359 20.1604 20.5 19.512 20.5 18.719V1.60181C20.5 0.804932 19.8359 0.1604 19.0195 0.1604ZM6.43359 17.2034H3.46484V7.65649H6.43359V17.2034ZM4.94922 6.35571C3.99609 6.35571 3.22656 5.58618 3.22656 4.63696C3.22656 3.68774 3.99609 2.91821 4.94922 2.91821C5.89844 2.91821 6.66797 3.68774 6.66797 4.63696C6.66797 5.58228 5.89844 6.35571 4.94922 6.35571ZM17.543 17.2034H14.5781V12.5627C14.5781 11.4573 14.5586 10.0315 13.0352 10.0315C11.4922 10.0315 11.2578 11.2385 11.2578 12.4846V17.2034H8.29688V7.65649H11.1406V8.96118H11.1797C11.5742 8.21118 12.543 7.41821 13.9844 7.41821C16.9883 7.41821 17.543 9.39478 17.543 11.9651V17.2034Z" fill="#3943A8"/>
</g>
</g>
<defs>
<clipPath id="clip0_320_316">
<rect width="20" height="20" fill="white" transform="translate(0.5 0.1604)"/>
</clipPath>
</defs>
</svg>
