<svg width="21" height="21" viewBox="0 0 21 21" fill="none" xmlns="http://www.w3.org/2000/svg">
<g id="Twitter" clip-path="url(#clip0_233_152)">
<path id="Vector" d="M6.7918 18.2855C14.3371 18.2855 18.4652 12.0328 18.4652 6.61207C18.4652 6.43629 18.4613 6.2566 18.4535 6.08082C19.2566 5.50007 19.9496 4.78073 20.5 3.9566C19.7521 4.28936 18.958 4.50667 18.1449 4.60114C19.0011 4.08795 19.6421 3.28175 19.9492 2.33199C19.1438 2.80932 18.263 3.14603 17.3445 3.3277C16.7257 2.67016 15.9075 2.23479 15.0164 2.0889C14.1253 1.94301 13.211 2.09473 12.4148 2.5206C11.6186 2.94647 10.9848 3.62278 10.6115 4.44495C10.2382 5.26712 10.1462 6.18937 10.3496 7.0691C8.71874 6.98726 7.12328 6.56361 5.66665 5.8256C4.21002 5.0876 2.92474 4.05172 1.89414 2.78512C1.37033 3.68823 1.21005 4.75689 1.44586 5.77393C1.68167 6.79097 2.29589 7.68006 3.16367 8.26051C2.51219 8.23983 1.87498 8.06442 1.30469 7.74879V7.79957C1.3041 8.74731 1.63175 9.66601 2.23192 10.3995C2.8321 11.133 3.66777 11.636 4.59687 11.823C3.99338 11.9881 3.35999 12.0122 2.7457 11.8933C3.00788 12.7084 3.51798 13.4213 4.20481 13.9325C4.89164 14.4437 5.72093 14.7277 6.57695 14.7449C5.12369 15.8864 3.32848 16.5056 1.48047 16.5027C1.15274 16.5022 0.825333 16.4821 0.5 16.4425C2.37738 17.647 4.56128 18.2867 6.7918 18.2855Z" fill="#29849F"/>
</g>
<defs>
<clipPath id="clip0_233_152">
<rect width="20" height="20" fill="white" transform="translate(0.5 0.1604)"/>
</clipPath>
</defs>
</svg>
