<svg width="16" height="17" viewBox="0 0 16 17" fill="none" xmlns="http://www.w3.org/2000/svg">
<g id="CalendarBlank">
<path id="Vector (Stroke)" fill-rule="evenodd" clip-rule="evenodd" d="M2 3.5C2 2.94772 2.44772 2.5 3 2.5H13C13.5523 2.5 14 2.94772 14 3.5V13.5C14 14.0523 13.5523 14.5 13 14.5H3C2.44772 14.5 2 14.0523 2 13.5V3.5ZM13 3.5H3V13.5H13V3.5Z" fill="black"/>
<path id="Vector (Stroke)_2" fill-rule="evenodd" clip-rule="evenodd" d="M11 1.5C11.2761 1.5 11.5 1.72386 11.5 2V4C11.5 4.27614 11.2761 4.5 11 4.5C10.7239 4.5 10.5 4.27614 10.5 4V2C10.5 1.72386 10.7239 1.5 11 1.5Z" fill="black"/>
<path id="Vector (Stroke)_3" fill-rule="evenodd" clip-rule="evenodd" d="M5 1.5C5.27614 1.5 5.5 1.72386 5.5 2V4C5.5 4.27614 5.27614 4.5 5 4.5C4.72386 4.5 4.5 4.27614 4.5 4V2C4.5 1.72386 4.72386 1.5 5 1.5Z" fill="black"/>
<path id="Vector (Stroke)_4" fill-rule="evenodd" clip-rule="evenodd" d="M2 6C2 5.72386 2.22386 5.5 2.5 5.5H13.5C13.7761 5.5 14 5.72386 14 6C14 6.27614 13.7761 6.5 13.5 6.5H2.5C2.22386 6.5 2 6.27614 2 6Z" fill="black"/>
</g>
</svg>
