<svg width="30" height="30" viewBox="0 0 30 30" fill="none" xmlns="http://www.w3.org/2000/svg">
<g id="ph:phone-light">
<path id="Vector" d="M25.9676 18.785L20.4317 16.3042C20.1808 16.1967 19.9072 16.1535 19.6354 16.1785C19.3637 16.2034 19.1025 16.2958 18.8754 16.4472C18.8524 16.4619 18.8304 16.4784 18.8098 16.4964L15.9164 18.9573C15.8864 18.9737 15.853 18.9828 15.8188 18.9841C15.7846 18.9853 15.7507 18.9785 15.7195 18.9643C13.8598 18.0667 11.9332 16.1518 11.032 14.3179C11.017 14.2872 11.0092 14.2535 11.0092 14.2194C11.0092 14.1853 11.017 14.1516 11.032 14.121L13.5012 11.1913C13.5189 11.1696 13.5353 11.1469 13.5504 11.1233C13.6997 10.8954 13.7899 10.6339 13.8128 10.3624C13.8357 10.0909 13.7906 9.81796 13.6817 9.56824L11.2184 4.04168C11.0785 3.71544 10.8366 3.44337 10.5289 3.2663C10.2213 3.08924 9.86448 3.01672 9.51212 3.05965C7.98075 3.26097 6.57507 4.01301 5.55777 5.17524C4.54048 6.33746 3.98118 7.83033 3.98439 9.37488C3.98439 18.5507 11.4492 26.0155 20.625 26.0155C22.1695 26.0185 23.6622 25.4591 24.8244 24.4418C25.9866 23.4246 26.7387 22.019 26.9402 20.4878C26.9831 20.1371 26.9116 19.7819 26.7363 19.4751C26.5611 19.1683 26.2915 18.9263 25.9676 18.785ZM20.625 24.6093C12.225 24.6093 5.39064 17.7749 5.39064 9.37488C5.38672 8.17246 5.82072 7.00974 6.61155 6.10396C7.40238 5.19818 8.49594 4.61131 9.6879 4.45301H9.71486C9.76208 4.45389 9.80794 4.46902 9.84642 4.49641C9.88489 4.52381 9.9142 4.56219 9.93048 4.60652L12.4031 10.1272C12.4172 10.1579 12.4245 10.1913 12.4245 10.2251C12.4245 10.2589 12.4172 10.2922 12.4031 10.3229L9.92931 13.2596C9.91086 13.2806 9.89401 13.3029 9.87892 13.3264C9.72412 13.5628 9.63297 13.835 9.61428 14.1169C9.5956 14.3988 9.65002 14.6808 9.77228 14.9354C10.8117 17.0636 12.9563 19.1917 15.1078 20.2311C15.364 20.3527 15.6473 20.4058 15.9301 20.3853C16.2129 20.3647 16.4856 20.2713 16.7215 20.1139C16.7438 20.0987 16.766 20.0823 16.7871 20.0647L19.6793 17.6038C19.7079 17.5884 19.7394 17.5794 19.7718 17.5774C19.8041 17.5754 19.8366 17.5804 19.8668 17.5921L25.4039 20.0729C25.4492 20.0922 25.4872 20.1252 25.5126 20.1672C25.5381 20.2093 25.5496 20.2583 25.5457 20.3073C25.3882 21.4998 24.8019 22.5942 23.8963 23.3859C22.9908 24.1776 21.8279 24.6125 20.625 24.6093Z" fill="#3943A8"/>
</g>
</svg>
