<svg width="30" height="30" viewBox="0 0 30 30" fill="none" xmlns="http://www.w3.org/2000/svg">
<g id="tabler:category">
<path id="Vector" d="M5 5H12.5V12.5H5V5ZM17.5 5H25V12.5H17.5V5ZM5 17.5H12.5V25H5V17.5ZM17.5 21.25C17.5 22.2446 17.8951 23.1984 18.5983 23.9017C19.3016 24.6049 20.2554 25 21.25 25C22.2446 25 23.1984 24.6049 23.9017 23.9017C24.6049 23.1984 25 22.2446 25 21.25C25 20.2554 24.6049 19.3016 23.9017 18.5983C23.1984 17.8951 22.2446 17.5 21.25 17.5C20.2554 17.5 19.3016 17.8951 18.5983 18.5983C17.8951 19.3016 17.5 20.2554 17.5 21.25Z" stroke="#3943A8" stroke-width="2" stroke-linecap="round" stroke-linejoin="round"/>
</g>
</svg>
