<svg width="75" height="75" viewBox="0 0 75 75" fill="none" xmlns="http://www.w3.org/2000/svg">
<g id="material-symbols:monetization-on">
<rect width="75" height="75" rx="37.5" fill="white"/>
<path id="Vector" d="M34.6875 59.375H40.1562V55.4688C42.7604 55 45 53.9844 46.875 52.4219C48.75 50.8594 49.6875 48.5417 49.6875 45.4688C49.6875 43.2812 49.0625 41.276 47.8125 39.4531C46.5625 37.6302 44.0625 36.0417 40.3125 34.6875C37.1875 33.6458 35.026 32.7344 33.8281 31.9531C32.6302 31.1719 32.0312 30.1042 32.0312 28.75C32.0312 27.3958 32.5135 26.3281 33.4781 25.5469C34.4427 24.7656 35.8354 24.375 37.6562 24.375C39.3229 24.375 40.625 24.7781 41.5625 25.5844C42.5 26.3906 43.1771 27.3937 43.5938 28.5937L48.5938 26.5625C48.0208 24.7396 46.9667 23.151 45.4313 21.7969C43.8958 20.4427 42.1896 19.6875 40.3125 19.5312V15.625H34.8437V19.5312C32.2396 20.1042 30.2083 21.25 28.75 22.9688C27.2917 24.6875 26.5625 26.6146 26.5625 28.75C26.5625 31.1979 27.2792 33.1771 28.7125 34.6875C30.1458 36.1979 32.3979 37.5 35.4688 38.5938C38.75 39.7917 41.0292 40.8594 42.3063 41.7969C43.5833 42.7344 44.2208 43.9583 44.2188 45.4688C44.2188 47.1875 43.6063 48.451 42.3813 49.2594C41.1562 50.0677 39.6854 50.4708 37.9687 50.4688C36.25 50.4688 34.726 49.9354 33.3969 48.8687C32.0677 47.8021 31.0917 46.2 30.4688 44.0625L25.3125 46.0938C26.0417 48.5938 27.175 50.6125 28.7125 52.15C30.25 53.6875 32.2417 54.7417 34.6875 55.3125V59.375ZM37.5 68.75C33.1771 68.75 29.1146 67.9292 25.3125 66.2875C21.5104 64.6458 18.2031 62.4198 15.3906 59.6094C12.5781 56.7969 10.3521 53.4896 8.7125 49.6875C7.07292 45.8854 6.25208 41.8229 6.25 37.5C6.25 33.1771 7.07083 29.1146 8.7125 25.3125C10.3542 21.5104 12.5802 18.2031 15.3906 15.3906C18.2031 12.5781 21.5104 10.3521 25.3125 8.7125C29.1146 7.07292 33.1771 6.25208 37.5 6.25C41.8229 6.25 45.8854 7.07083 49.6875 8.7125C53.4896 10.3542 56.7969 12.5802 59.6094 15.3906C62.4219 18.2031 64.649 21.5104 66.2906 25.3125C67.9323 29.1146 68.7521 33.1771 68.75 37.5C68.75 41.8229 67.9292 45.8854 66.2875 49.6875C64.6458 53.4896 62.4198 56.7969 59.6094 59.6094C56.7969 62.4219 53.4896 64.649 49.6875 66.2906C45.8854 67.9323 41.8229 68.7521 37.5 68.75Z" fill="black"/>
</g>
</svg>
