<svg width="26" height="21" viewBox="0 0 26 21" fill="none" xmlns="http://www.w3.org/2000/svg">
<g id="fa6-solid:business-time" clip-path="url(#clip0_320_41)">
<path id="Vector" d="M7.6875 2.375H13.3125C13.4844 2.375 13.625 2.51562 13.625 2.6875V4.25H7.375V2.6875C7.375 2.51562 7.51562 2.375 7.6875 2.375ZM5.5 2.6875V4.25H3C1.62109 4.25 0.5 5.37109 0.5 6.75V10.5H14.5703C15.832 8.97266 17.7383 8 19.875 8C20.0859 8 20.293 8.00781 20.5 8.02734V6.75C20.5 5.37109 19.3789 4.25 18 4.25H15.5V2.6875C15.5 1.48047 14.5195 0.5 13.3125 0.5H7.6875C6.48047 0.5 5.5 1.48047 5.5 2.6875ZM13 14.25H9.25C8.55859 14.25 8 13.6914 8 13V11.75H0.5V16.75C0.5 18.1289 1.62109 19.25 3 19.25H14.5703C13.5898 18.0625 13 16.5352 13 14.875C13 14.6641 13.0078 14.457 13.0273 14.25H13ZM25.5 14.875C25.5 13.3832 24.9074 11.9524 23.8525 10.8975C22.7976 9.84263 21.3668 9.25 19.875 9.25C18.3832 9.25 16.9524 9.84263 15.8975 10.8975C14.8426 11.9524 14.25 13.3832 14.25 14.875C14.25 16.3668 14.8426 17.7976 15.8975 18.8525C16.9524 19.9074 18.3832 20.5 19.875 20.5C21.3668 20.5 22.7976 19.9074 23.8525 18.8525C24.9074 17.7976 25.5 16.3668 25.5 14.875ZM19.875 11.75C20.2188 11.75 20.5 12.0312 20.5 12.375V14.25H21.75C22.0938 14.25 22.375 14.5312 22.375 14.875C22.375 15.2188 22.0938 15.5 21.75 15.5H19.875C19.5312 15.5 19.25 15.2188 19.25 14.875V12.375C19.25 12.0312 19.5312 11.75 19.875 11.75Z" fill="black"/>
</g>
<defs>
<clipPath id="clip0_320_41">
<rect width="25" height="20" fill="white" transform="translate(0.5 0.5)"/>
</clipPath>
</defs>
</svg>
