<svg width="75" height="76" viewBox="0 0 75 76" fill="none" xmlns="http://www.w3.org/2000/svg">
<g id="game-icons:achievement">
<rect y="0.5" width="75" height="75" rx="37.5" fill="white"/>
<path id="Vector" d="M44.8207 44.2716L48.1465 44.6207V71.6914L38.9602 61.8821V46.2762L41.6282 47.5792L44.8207 44.2716ZM30.1796 44.2716L26.8521 44.6207V71.6914L36.0382 61.8821V46.2762L33.3703 47.5792L30.1796 44.2716ZM55.372 27.3116L56.4482 31.0578L53.2175 33.236L52.9469 37.1283L49.1662 38.0694L47.5837 41.6311L43.7077 41.2216L41.0014 44.0176L37.5001 42.3071L33.9989 44.0176L31.2926 41.2124L27.4166 41.6218L25.8341 38.0603L22.0534 37.1283L21.7828 33.2415L18.5429 31.0559L19.6192 27.3099L17.335 24.154L19.6266 21.0017L18.5429 17.2629L21.7755 15.0847L22.046 11.1978L25.8341 10.2658L27.4166 6.70435L31.2926 7.11362L33.9989 4.30859L37.5001 6.01909L41.0014 4.30859L43.7077 7.11362L47.5837 6.70435L49.1662 10.2658L52.9469 11.207L53.2175 15.0938L56.4482 17.272L55.372 21.0182L57.6653 24.154L55.372 27.3116ZM48.1629 24.154C48.1629 22.061 47.5422 20.015 46.3794 18.2748C45.2166 16.5345 43.5639 15.1782 41.6302 14.3772C39.6966 13.5763 37.5688 13.3667 35.5161 13.775C33.4633 14.1833 31.5777 15.1912 30.0977 16.6712C28.6178 18.1511 27.6099 20.0367 27.2016 22.0895C26.7933 24.1423 27.0028 26.27 27.8038 28.2037C28.6047 30.1374 29.9611 31.7901 31.7013 32.9529C33.4416 34.1157 35.4876 34.7363 37.5806 34.7363C40.3858 34.732 43.0749 33.6156 45.0586 31.632C47.0422 29.6484 48.1585 26.9593 48.1629 24.154ZM37.5806 16.4954C36.0659 16.4954 34.5852 16.9445 33.3257 17.786C32.0663 18.6276 31.0847 19.8236 30.5051 21.223C29.9254 22.6224 29.7737 24.1623 30.0692 25.6479C30.3647 27.1335 31.0941 28.4981 32.1651 29.5692C33.2362 30.6402 34.6008 31.3697 36.0864 31.6652C37.572 31.9607 39.1118 31.8091 40.5112 31.2294C41.9107 30.6498 43.1068 29.6682 43.9483 28.4088C44.7898 27.1494 45.239 25.6687 45.2391 24.154C45.2333 22.1251 44.4243 20.1811 42.9892 18.747C41.5541 17.3128 39.6094 16.5053 37.5806 16.5009V16.4954Z" fill="black"/>
</g>
</svg>
