<svg width="75" height="75" viewBox="0 0 75 75" fill="none" xmlns="http://www.w3.org/2000/svg">
<g id="ant-design:safety-outlined">
<rect width="75" height="75" rx="37.5" fill="white"/>
<path id="Vector" d="M37.5 4.6875L9.375 14.0625V42.1875C9.375 57.7222 21.9653 70.3125 37.5 70.3125C53.0347 70.3125 65.625 57.7222 65.625 42.1875V14.0625L37.5 4.6875ZM60.3516 42.1875C60.3516 54.8071 50.1196 65.0391 37.5 65.0391C24.8804 65.0391 14.6484 54.8071 14.6484 42.1875V18.0176L37.5 9.96094L60.3516 18.0176V42.1875Z" fill="black"/>
<path id="Vector_2" d="M27.7145 34.7974C27.4701 34.5519 27.1797 34.3571 26.8598 34.2241C26.5399 34.0912 26.1969 34.0228 25.8505 34.0228C25.5041 34.0228 25.1611 34.0912 24.8412 34.2241C24.5214 34.3571 24.2309 34.5519 23.9865 34.7974C23.741 35.0418 23.5462 35.3322 23.4133 35.6521C23.2803 35.972 23.2119 36.315 23.2119 36.6614C23.2119 37.0078 23.2803 37.3508 23.4133 37.6707C23.5462 37.9905 23.741 38.281 23.9865 38.5254L33.464 48.0029L33.6179 48.1567C33.849 48.3883 34.1236 48.5721 34.4258 48.6974C34.7281 48.8228 35.0521 48.8873 35.3793 48.8873C35.7065 48.8873 36.0306 48.8228 36.3328 48.6974C36.6351 48.5721 36.9096 48.3883 37.1408 48.1567L53.5104 31.7871C53.742 31.5559 53.9258 31.2814 54.0511 30.9791C54.1765 30.6769 54.241 30.3529 54.241 30.0256C54.241 29.6984 54.1765 29.3744 54.0511 29.0721C53.9258 28.7699 53.742 28.4953 53.5104 28.2642L53.3053 28.0591C53.0742 27.8275 52.7996 27.6437 52.4974 27.5184C52.1951 27.393 51.8711 27.3285 51.5439 27.3285C51.2167 27.3285 50.8926 27.393 50.5904 27.5184C50.2881 27.6437 50.0136 27.8275 49.7824 28.0591L35.3757 42.4585L27.7145 34.7974Z" fill="black"/>
</g>
</svg>
